<?xml version="1.0" encoding="UTF-8" standalone="no"?>
<!-- Created with Inkscape (http://www.inkscape.org/) -->

<svg
   version="1.1"
   id="svg2"
   width="400"
   height="400"
   viewBox="0 0 400 400"
   xmlns="http://www.w3.org/2000/svg"
   xmlns:svg="http://www.w3.org/2000/svg">
  <defs
     id="defs6">
    <clipPath
       clipPathUnits="userSpaceOnUse"
       id="clipPath18">
      <path
         d="M -8,0 H 504 V 512 H -8 Z"
         id="path16" />
    </clipPath>
  </defs>
  <g
     id="g8"
     transform="matrix(1.3333333,0,0,-1.3333333,0,400)">
    <g
       id="g10"
       transform="matrix(0.18,0,0,-0.18,0,300)">
      <g
         id="g12"
         transform="matrix(3.2552084,0,0,3.2552084,26.041667,0)">
        <g
           id="g14"
           clip-path="url(#clipPath18)">
          <path
             d="M 248,8 C 111,8 0,119 0,256 0,393 111,504 248,504 385,504 496,393 496,256 496,119 385,8 248,8 Z m 0,96 c 48.60001,0 88,39.39999 88,88 0,48.60001 -39.39999,88 -88,88 -48.60001,0 -88,-39.39999 -88,-88 0,-48.60001 39.39999,-88 88,-88 z m 0,344 C 189.3,448 136.7,421.39999 101.5,379.79999 120.3,344.39999 157.10001,320 200,320 c 2.39999,0 4.8,0.39999 7.10001,1.10001 13,4.20001 26.6,6.89999 40.89999,6.89999 14.29999,0 28,-2.70001 40.89999,-6.89999 C 291.19998,320.39999 293.60001,320 296,320 c 42.89999,0 79.70001,24.39999 98.5,59.79999 C 359.29999,421.39999 306.70001,448 248,448 Z"
             style="fill:#e5e5e5;fill-opacity:1;fill-rule:nonzero;stroke:none"
             id="path20" />
        </g>
      </g>
    </g>
  </g>
</svg>
